# xmcd
#
# Track frame offsets:
#	150
#	14923
#	32474
#	48269
#	64840
#	85210
#	100376
#	122613
#	139723
#	156567
#	172379
#	186563
#	203869
#	220364
#	237552
#	254704
#	268884
#	284634
#	301668
#	313681
#	332001
#	343740
#
# Disc length: 4795 seconds
#
# Revision: 0
# Processed by: cddbd v1.5.2PL0 Copyright (c) Steve Scherf et al.
# Submitted via: audiograbber 1.83.01
#
DISCID=6712b916
DTITLE=Mixed By G-Wizard - Def Rok - Troy T - Rnb Superclub Vol 12 - Disc 2
DYEAR=2012
DGENRE=R&B
TTITLE0=Sean Paul - Got 2 Luv U 
TTITLE1=Kelly Rowland and Big Sean - Lay It On Me 
TTITLE2=Mann - The Mack 
TTITLE3=Wiz Khalifa - Roll Up 
TTITLE4=Nicki Minaj - Moment 4 Life 
TTITLE5=Tyga - Rack City 
TTITLE6=Frank Ocean - Novacane
TTITLE7=Lupe Fiasco - Coming Up 
TTITLE8=Musiq Soulchild - Anything
TTITLE9=Labrinth - Earthquake 
TTITLE10=Big Sean - Dance (A$$) 
TTITLE11=T-Pain - Booty Wurk (One Cheek At A Time)
TTITLE12=Jeremih - Down On Me 
TTITLE13=Jennifer Lopez - I'm Into You 
TTITLE14=Ke$ha - The Sleazy Remix
TTITLE15=Young Money and Lloyd - Bedrock
TTITLE16=Wale - White Linen (Coolin) 
TTITLE17=J Cole - Work Out 
TTITLE18=50 Cent - Wait Until Tonight 
TTITLE19=Keri Hilson - Turnin Me On 
TTITLE20=Mac Miller - Donald Trump
TTITLE21=360 - Boys Like You
EXTD=
EXTT0=
EXTT1=
EXTT2=
EXTT3=
EXTT4=
EXTT5=
EXTT6=
EXTT7=
EXTT8=
EXTT9=
EXTT10=
EXTT11=
EXTT12=
EXTT13=
EXTT14=
EXTT15=
EXTT16=
EXTT17=
EXTT18=
EXTT19=
EXTT20=
EXTT21=
PLAYORDER=
